G04*
G04 #@! TF.GenerationSoftware,Altium Limited,Altium Designer,25.8.1 (18)*
G04*
G04 Layer_Color=65535*
%FSLAX44Y44*%
%MOMM*%
G71*
G04*
G04 #@! TF.SameCoordinates,36C31401-F8FC-4B98-A594-FA9AA5983C7E*
G04*
G04*
G04 #@! TF.FilePolarity,Positive*
G04*
G01*
G75*
%ADD10C,0.2500*%
%ADD11C,0.2000*%
%ADD12C,0.1000*%
G36*
X708660Y601873D02*
X698898D01*
Y609095D01*
X700547D01*
Y603850D01*
X702716D01*
Y608723D01*
X704366D01*
Y603850D01*
X707011D01*
Y609288D01*
X708660D01*
Y601873D01*
D02*
G37*
G36*
Y597401D02*
Y595276D01*
X698898Y591784D01*
Y593909D01*
X706119Y596390D01*
X698898Y598768D01*
Y600878D01*
X708660Y597401D01*
D02*
G37*
G36*
X706060Y588010D02*
X704187D01*
Y591680D01*
X706060D01*
Y588010D01*
D02*
G37*
G36*
X704009Y664230D02*
X704128D01*
X704410Y664201D01*
X704737Y664171D01*
X705079Y664111D01*
X705436Y664037D01*
X705777Y663933D01*
X705792D01*
X705822Y663918D01*
X705881Y663903D01*
X705956Y663874D01*
X706045Y663829D01*
X706149Y663784D01*
X706387Y663666D01*
X706669Y663517D01*
X706951Y663339D01*
X707234Y663131D01*
X707501Y662893D01*
X707516Y662863D01*
X707590Y662804D01*
X707679Y662685D01*
X707783Y662536D01*
X707917Y662328D01*
X708051Y662091D01*
X708170Y661823D01*
X708288Y661511D01*
X708303Y661481D01*
X708318Y661392D01*
X708348Y661258D01*
X708378Y661050D01*
X708422Y660813D01*
X708452Y660516D01*
X708467Y660159D01*
X708482Y659773D01*
Y656088D01*
X698719D01*
Y659966D01*
X698734Y660085D01*
X698749Y660352D01*
X698764Y660664D01*
X698794Y660961D01*
X698853Y661258D01*
X698913Y661526D01*
Y661541D01*
X698927Y661571D01*
X698942Y661615D01*
X698957Y661675D01*
X699031Y661823D01*
X699120Y662031D01*
X699239Y662254D01*
X699403Y662492D01*
X699596Y662744D01*
X699819Y662982D01*
Y662997D01*
X699849Y663012D01*
X699938Y663086D01*
X700071Y663190D01*
X700250Y663339D01*
X700488Y663487D01*
X700755Y663636D01*
X701052Y663784D01*
X701394Y663918D01*
X701409D01*
X701439Y663933D01*
X701483Y663948D01*
X701557Y663963D01*
X701647Y663993D01*
X701765Y664022D01*
X701884Y664052D01*
X702033Y664082D01*
X702196Y664111D01*
X702360Y664141D01*
X702761Y664201D01*
X703207Y664230D01*
X703697Y664245D01*
X703712D01*
X703756D01*
X703816D01*
X703905D01*
X704009Y664230D01*
D02*
G37*
G36*
X708482Y652908D02*
X706268Y652076D01*
Y648138D01*
X708482Y647336D01*
Y645255D01*
X698719Y649044D01*
Y651125D01*
X708482Y655048D01*
Y652908D01*
D02*
G37*
G36*
X703846Y644691D02*
X704009D01*
X704217Y644661D01*
X704440Y644631D01*
X704707Y644602D01*
X704975Y644542D01*
X705272Y644483D01*
X705569Y644394D01*
X705881Y644289D01*
X706193Y644156D01*
X706491Y644007D01*
X706788Y643844D01*
X707070Y643636D01*
X707337Y643413D01*
X707352Y643398D01*
X707397Y643353D01*
X707456Y643279D01*
X707546Y643175D01*
X707650Y643056D01*
X707754Y642893D01*
X707872Y642714D01*
X707991Y642506D01*
X708125Y642269D01*
X708244Y642016D01*
X708348Y641734D01*
X708452Y641422D01*
X708541Y641095D01*
X708601Y640753D01*
X708645Y640382D01*
X708660Y639980D01*
Y639891D01*
X708645Y639772D01*
Y639624D01*
X708615Y639445D01*
X708586Y639223D01*
X708556Y638985D01*
X708497Y638732D01*
X708422Y638465D01*
X708333Y638182D01*
X708229Y637900D01*
X708095Y637618D01*
X707947Y637321D01*
X707768Y637053D01*
X707575Y636786D01*
X707337Y636533D01*
X707323Y636518D01*
X707278Y636474D01*
X707204Y636414D01*
X707100Y636340D01*
X706966Y636236D01*
X706803Y636132D01*
X706609Y636013D01*
X706387Y635894D01*
X706134Y635775D01*
X705866Y635657D01*
X705569Y635552D01*
X705242Y635448D01*
X704886Y635374D01*
X704514Y635315D01*
X704113Y635270D01*
X703682Y635255D01*
X703667D01*
X703608D01*
X703534D01*
X703430D01*
X703296Y635270D01*
X703147Y635285D01*
X702984D01*
X702806Y635315D01*
X702404Y635359D01*
X701988Y635434D01*
X701572Y635538D01*
X701171Y635686D01*
X701156D01*
X701141Y635701D01*
X701052Y635746D01*
X700904Y635820D01*
X700725Y635924D01*
X700517Y636058D01*
X700294Y636206D01*
X700057Y636399D01*
X699834Y636593D01*
X699804Y636622D01*
X699730Y636697D01*
X699626Y636815D01*
X699507Y636964D01*
X699358Y637157D01*
X699210Y637365D01*
X699076Y637603D01*
X698957Y637856D01*
Y637870D01*
X698942Y637900D01*
X698913Y637945D01*
X698898Y638019D01*
X698868Y638108D01*
X698823Y638212D01*
X698794Y638331D01*
X698749Y638465D01*
X698690Y638777D01*
X698615Y639133D01*
X698571Y639535D01*
X698556Y639966D01*
Y640055D01*
X698571Y640174D01*
Y640322D01*
X698600Y640500D01*
X698630Y640708D01*
X698675Y640946D01*
X698719Y641199D01*
X698794Y641481D01*
X698883Y641749D01*
X699002Y642046D01*
X699120Y642328D01*
X699284Y642610D01*
X699462Y642893D01*
X699670Y643160D01*
X699908Y643413D01*
X699923Y643428D01*
X699967Y643472D01*
X700042Y643532D01*
X700161Y643621D01*
X700294Y643710D01*
X700458Y643829D01*
X700651Y643933D01*
X700874Y644067D01*
X701126Y644185D01*
X701409Y644304D01*
X701706Y644408D01*
X702033Y644498D01*
X702390Y644587D01*
X702776Y644646D01*
X703192Y644691D01*
X703623Y644706D01*
X703652D01*
X703727D01*
X703846Y644691D01*
D02*
G37*
G36*
X708482Y627380D02*
X698809D01*
Y629356D01*
X706832D01*
Y634245D01*
X708482D01*
Y627380D01*
D02*
G37*
G36*
X708660Y691859D02*
X698898D01*
Y699081D01*
X700547D01*
Y693835D01*
X702716D01*
Y698709D01*
X704366D01*
Y693835D01*
X707011D01*
Y699274D01*
X708660D01*
Y691859D01*
D02*
G37*
G36*
Y687386D02*
Y685262D01*
X698898Y681770D01*
Y683895D01*
X706119Y686376D01*
X698898Y688754D01*
Y690863D01*
X708660Y687386D01*
D02*
G37*
G36*
X704737Y678634D02*
X707263D01*
Y676926D01*
X704737D01*
Y674370D01*
X703014D01*
Y676926D01*
X700488D01*
Y678634D01*
X703014D01*
Y681190D01*
X704737D01*
Y678634D01*
D02*
G37*
G36*
X451722Y618490D02*
X449895D01*
X449880Y626172D01*
X447948Y618490D01*
X446061D01*
X444129Y626172D01*
Y618490D01*
X442302D01*
Y628252D01*
X445244D01*
X447012Y621581D01*
X448751Y628252D01*
X451722D01*
Y618490D01*
D02*
G37*
G36*
X438944D02*
X436834D01*
X434887Y625786D01*
X432956Y618490D01*
X430786D01*
X428513Y628252D01*
X430534D01*
X431975Y621536D01*
X433758Y628252D01*
X436091D01*
X437814Y621432D01*
X439300Y628252D01*
X441292D01*
X438944Y618490D01*
D02*
G37*
G36*
X424293Y628237D02*
X424486D01*
X424887Y628223D01*
X425274Y628193D01*
X425452Y628178D01*
X425615Y628148D01*
X425749Y628134D01*
X425868Y628104D01*
X425883D01*
X425912Y628089D01*
X425942Y628074D01*
X426002Y628059D01*
X426165Y628000D01*
X426358Y627896D01*
X426581Y627777D01*
X426804Y627599D01*
X427042Y627391D01*
X427265Y627138D01*
Y627123D01*
X427294Y627108D01*
X427324Y627064D01*
X427354Y627004D01*
X427398Y626930D01*
X427443Y626841D01*
X427562Y626633D01*
X427666Y626350D01*
X427755Y626023D01*
X427814Y625652D01*
X427844Y625236D01*
Y625221D01*
Y625191D01*
Y625147D01*
Y625087D01*
X427829Y624924D01*
X427799Y624716D01*
X427770Y624478D01*
X427710Y624226D01*
X427621Y623973D01*
X427517Y623735D01*
X427502Y623705D01*
X427458Y623631D01*
X427383Y623527D01*
X427294Y623394D01*
X427175Y623230D01*
X427027Y623067D01*
X426863Y622918D01*
X426685Y622769D01*
X426670Y622755D01*
X426596Y622710D01*
X426492Y622650D01*
X426373Y622591D01*
X426210Y622502D01*
X426046Y622428D01*
X425853Y622368D01*
X425660Y622309D01*
X425630D01*
X425586Y622294D01*
X425526D01*
X425452Y622279D01*
X425363Y622264D01*
X425259Y622249D01*
X425140D01*
X425006Y622234D01*
X424857Y622220D01*
X424694Y622205D01*
X424501Y622190D01*
X424308D01*
X424100Y622175D01*
X422346D01*
Y618490D01*
X420370D01*
Y628252D01*
X424114D01*
X424293Y628237D01*
D02*
G37*
G36*
X425496Y678109D02*
X425645Y678094D01*
X425823Y678080D01*
X426016Y678065D01*
X426239Y678035D01*
X426685Y677931D01*
X427161Y677797D01*
X427383Y677708D01*
X427606Y677604D01*
X427829Y677485D01*
X428022Y677352D01*
X428037Y677337D01*
X428067Y677322D01*
X428126Y677277D01*
X428186Y677218D01*
X428275Y677129D01*
X428364Y677039D01*
X428468Y676935D01*
X428572Y676802D01*
X428691Y676668D01*
X428795Y676505D01*
X428914Y676341D01*
X429018Y676148D01*
X429196Y675747D01*
X429285Y675509D01*
X429345Y675271D01*
X427383Y674900D01*
Y674915D01*
X427369Y674929D01*
X427339Y675019D01*
X427294Y675152D01*
X427205Y675316D01*
X427101Y675494D01*
X426967Y675672D01*
X426804Y675866D01*
X426611Y676029D01*
X426581Y676044D01*
X426507Y676088D01*
X426388Y676163D01*
X426224Y676237D01*
X426016Y676311D01*
X425779Y676386D01*
X425496Y676430D01*
X425199Y676445D01*
X425080D01*
X424991Y676430D01*
X424872Y676415D01*
X424753Y676401D01*
X424456Y676341D01*
X424129Y676237D01*
X423788Y676088D01*
X423624Y675999D01*
X423461Y675895D01*
X423297Y675761D01*
X423149Y675613D01*
X423134Y675598D01*
X423119Y675568D01*
X423074Y675524D01*
X423030Y675464D01*
X422970Y675375D01*
X422911Y675271D01*
X422851Y675152D01*
X422777Y675004D01*
X422703Y674840D01*
X422643Y674662D01*
X422584Y674454D01*
X422525Y674246D01*
X422480Y674008D01*
X422435Y673741D01*
X422421Y673473D01*
X422406Y673176D01*
Y673161D01*
Y673102D01*
Y673013D01*
X422421Y672894D01*
X422435Y672745D01*
X422450Y672582D01*
X422465Y672403D01*
X422495Y672195D01*
X422584Y671779D01*
X422733Y671334D01*
X422807Y671125D01*
X422911Y670932D01*
X423030Y670739D01*
X423163Y670561D01*
X423178Y670546D01*
X423193Y670531D01*
X423238Y670487D01*
X423297Y670427D01*
X423386Y670368D01*
X423475Y670293D01*
X423579Y670204D01*
X423713Y670130D01*
X423996Y669967D01*
X424337Y669833D01*
X424530Y669773D01*
X424739Y669744D01*
X424961Y669714D01*
X425184Y669699D01*
X425288D01*
X425407Y669714D01*
X425571Y669729D01*
X425749Y669759D01*
X425957Y669803D01*
X426180Y669863D01*
X426418Y669937D01*
X426447Y669952D01*
X426522Y669981D01*
X426641Y670026D01*
X426789Y670100D01*
X426953Y670189D01*
X427131Y670293D01*
X427309Y670397D01*
X427487Y670531D01*
Y671779D01*
X425244D01*
Y673429D01*
X429479D01*
Y669521D01*
X429449Y669491D01*
X429360Y669417D01*
X429226Y669313D01*
X429018Y669164D01*
X428765Y669001D01*
X428453Y668822D01*
X428097Y668644D01*
X427681Y668466D01*
X427666D01*
X427621Y668451D01*
X427562Y668421D01*
X427473Y668391D01*
X427369Y668362D01*
X427250Y668332D01*
X427101Y668288D01*
X426938Y668243D01*
X426581Y668169D01*
X426180Y668094D01*
X425749Y668035D01*
X425303Y668020D01*
X425155D01*
X425051Y668035D01*
X424917D01*
X424753Y668050D01*
X424590Y668079D01*
X424397Y668094D01*
X423981Y668183D01*
X423535Y668288D01*
X423074Y668451D01*
X422851Y668540D01*
X422629Y668659D01*
X422614Y668674D01*
X422584Y668689D01*
X422525Y668733D01*
X422450Y668778D01*
X422346Y668837D01*
X422242Y668926D01*
X421990Y669134D01*
X421722Y669387D01*
X421440Y669699D01*
X421172Y670070D01*
X420935Y670487D01*
Y670501D01*
X420905Y670546D01*
X420890Y670605D01*
X420845Y670695D01*
X420801Y670814D01*
X420756Y670947D01*
X420712Y671096D01*
X420652Y671259D01*
X420593Y671452D01*
X420548Y671661D01*
X420459Y672091D01*
X420400Y672582D01*
X420370Y673102D01*
Y673117D01*
Y673176D01*
Y673250D01*
X420385Y673354D01*
Y673488D01*
X420400Y673652D01*
X420429Y673815D01*
X420444Y674008D01*
X420519Y674424D01*
X420638Y674885D01*
X420786Y675346D01*
X420994Y675806D01*
X421009Y675821D01*
X421024Y675866D01*
X421068Y675925D01*
X421113Y675999D01*
X421187Y676103D01*
X421261Y676222D01*
X421470Y676475D01*
X421737Y676772D01*
X422049Y677084D01*
X422435Y677366D01*
X422866Y677634D01*
X422881D01*
X422911Y677649D01*
X422956Y677678D01*
X423030Y677708D01*
X423134Y677753D01*
X423238Y677782D01*
X423372Y677827D01*
X423505Y677886D01*
X423669Y677931D01*
X423847Y677975D01*
X424040Y678005D01*
X424248Y678050D01*
X424694Y678109D01*
X425199Y678124D01*
X425378D01*
X425496Y678109D01*
D02*
G37*
G36*
X439063Y668198D02*
X437086D01*
X433134Y674603D01*
Y668198D01*
X431306D01*
Y677961D01*
X433208D01*
X437235Y671408D01*
Y677961D01*
X439063D01*
Y668198D01*
D02*
G37*
G36*
X445140Y677946D02*
X445407Y677931D01*
X445719Y677916D01*
X446017Y677886D01*
X446314Y677827D01*
X446581Y677767D01*
X446596D01*
X446626Y677753D01*
X446670Y677738D01*
X446730Y677723D01*
X446879Y677649D01*
X447086Y677560D01*
X447309Y677441D01*
X447547Y677277D01*
X447800Y677084D01*
X448037Y676861D01*
X448052D01*
X448067Y676831D01*
X448142Y676742D01*
X448246Y676609D01*
X448394Y676430D01*
X448543Y676192D01*
X448691Y675925D01*
X448840Y675628D01*
X448974Y675286D01*
Y675271D01*
X448988Y675241D01*
X449003Y675197D01*
X449018Y675123D01*
X449048Y675033D01*
X449078Y674915D01*
X449107Y674796D01*
X449137Y674647D01*
X449167Y674484D01*
X449197Y674320D01*
X449256Y673919D01*
X449286Y673473D01*
X449300Y672983D01*
Y672968D01*
Y672924D01*
Y672864D01*
Y672775D01*
X449286Y672671D01*
Y672552D01*
X449256Y672270D01*
X449226Y671943D01*
X449167Y671601D01*
X449092Y671244D01*
X448988Y670903D01*
Y670888D01*
X448974Y670858D01*
X448959Y670799D01*
X448929Y670724D01*
X448884Y670635D01*
X448840Y670531D01*
X448721Y670293D01*
X448572Y670011D01*
X448394Y669729D01*
X448186Y669446D01*
X447948Y669179D01*
X447919Y669164D01*
X447859Y669090D01*
X447740Y669001D01*
X447592Y668897D01*
X447384Y668763D01*
X447146Y668629D01*
X446879Y668510D01*
X446566Y668391D01*
X446537Y668377D01*
X446447Y668362D01*
X446314Y668332D01*
X446106Y668302D01*
X445868Y668258D01*
X445571Y668228D01*
X445214Y668213D01*
X444828Y668198D01*
X441143D01*
Y677961D01*
X445021D01*
X445140Y677946D01*
D02*
G37*
G36*
X553024Y702486D02*
X551821D01*
Y710124D01*
X551806Y710109D01*
X551746Y710050D01*
X551642Y709976D01*
X551509Y709872D01*
X551345Y709738D01*
X551152Y709604D01*
X550929Y709441D01*
X550677Y709292D01*
X550662D01*
X550647Y709277D01*
X550558Y709218D01*
X550424Y709143D01*
X550261Y709054D01*
X550067Y708950D01*
X549859Y708861D01*
X549636Y708757D01*
X549428Y708668D01*
Y709842D01*
X549443D01*
X549473Y709857D01*
X549532Y709886D01*
X549592Y709931D01*
X549681Y709976D01*
X549785Y710020D01*
X550023Y710154D01*
X550290Y710317D01*
X550587Y710510D01*
X550885Y710733D01*
X551167Y710971D01*
X551182Y710986D01*
X551197Y711001D01*
X551286Y711090D01*
X551419Y711224D01*
X551583Y711387D01*
X551761Y711595D01*
X551940Y711818D01*
X552103Y712056D01*
X552237Y712293D01*
X553024D01*
Y702486D01*
D02*
G37*
G36*
X543827Y712234D02*
X543945D01*
X544243Y712219D01*
X544555Y712189D01*
X544882Y712130D01*
X545194Y712071D01*
X545342Y712026D01*
X545476Y711981D01*
X545491D01*
X545506Y711967D01*
X545595Y711937D01*
X545714Y711863D01*
X545862Y711758D01*
X546041Y711640D01*
X546219Y711476D01*
X546397Y711283D01*
X546561Y711045D01*
X546576Y711016D01*
X546620Y710926D01*
X546694Y710793D01*
X546769Y710614D01*
X546843Y710391D01*
X546917Y710139D01*
X546962Y709872D01*
X546977Y709574D01*
Y709559D01*
Y709530D01*
Y709470D01*
X546962Y709396D01*
Y709307D01*
X546947Y709203D01*
X546888Y708965D01*
X546813Y708683D01*
X546694Y708400D01*
X546516Y708103D01*
X546412Y707955D01*
X546293Y707821D01*
X546263Y707791D01*
X546219Y707762D01*
X546174Y707702D01*
X546100Y707657D01*
X546011Y707583D01*
X545907Y707524D01*
X545788Y707449D01*
X545654Y707375D01*
X545491Y707301D01*
X545327Y707227D01*
X545134Y707152D01*
X544941Y707078D01*
X544718Y707019D01*
X544480Y706974D01*
X544228Y706929D01*
X544258Y706915D01*
X544317Y706885D01*
X544406Y706840D01*
X544510Y706781D01*
X544763Y706617D01*
X544896Y706528D01*
X545000Y706439D01*
X545030Y706409D01*
X545104Y706350D01*
X545209Y706231D01*
X545342Y706082D01*
X545506Y705889D01*
X545684Y705666D01*
X545877Y705414D01*
X546070Y705131D01*
X547764Y702486D01*
X546145D01*
X544852Y704507D01*
Y704522D01*
X544822Y704552D01*
X544792Y704596D01*
X544763Y704656D01*
X544659Y704805D01*
X544525Y704998D01*
X544376Y705221D01*
X544213Y705443D01*
X544064Y705651D01*
X543916Y705845D01*
X543901Y705860D01*
X543856Y705919D01*
X543782Y706008D01*
X543708Y706112D01*
X543485Y706320D01*
X543381Y706424D01*
X543262Y706498D01*
X543247Y706513D01*
X543217Y706528D01*
X543158Y706558D01*
X543084Y706602D01*
X542905Y706692D01*
X542682Y706766D01*
X542668D01*
X542638Y706781D01*
X542578D01*
X542504Y706796D01*
X542400Y706811D01*
X542281D01*
X542133Y706825D01*
X540468D01*
Y702486D01*
X539176D01*
Y712249D01*
X543708D01*
X543827Y712234D01*
D02*
G37*
G36*
X528218Y712279D02*
X528337Y712264D01*
X528470Y712249D01*
X528619Y712234D01*
X528782Y712189D01*
X529139Y712100D01*
X529510Y711967D01*
X529704Y711877D01*
X529882Y711773D01*
X530045Y711640D01*
X530209Y711506D01*
X530224Y711491D01*
X530239Y711476D01*
X530283Y711432D01*
X530343Y711372D01*
X530402Y711283D01*
X530476Y711194D01*
X530625Y710971D01*
X530774Y710689D01*
X530907Y710362D01*
X531011Y709990D01*
X531026Y709782D01*
X531041Y709574D01*
Y709545D01*
Y709470D01*
X531026Y709351D01*
X531011Y709203D01*
X530981Y709025D01*
X530937Y708831D01*
X530877Y708623D01*
X530788Y708415D01*
X530774Y708386D01*
X530744Y708311D01*
X530684Y708207D01*
X530595Y708059D01*
X530491Y707880D01*
X530358Y707672D01*
X530179Y707464D01*
X529986Y707227D01*
X529956Y707197D01*
X529882Y707108D01*
X529748Y706974D01*
X529659Y706885D01*
X529555Y706781D01*
X529436Y706662D01*
X529288Y706528D01*
X529139Y706394D01*
X528976Y706231D01*
X528797Y706068D01*
X528589Y705889D01*
X528381Y705711D01*
X528144Y705503D01*
X528129Y705488D01*
X528099Y705458D01*
X528040Y705414D01*
X527965Y705354D01*
X527787Y705206D01*
X527564Y705013D01*
X527341Y704805D01*
X527103Y704596D01*
X526910Y704418D01*
X526836Y704344D01*
X526762Y704270D01*
X526747Y704255D01*
X526717Y704210D01*
X526658Y704151D01*
X526583Y704062D01*
X526420Y703868D01*
X526256Y703631D01*
X531056D01*
Y702486D01*
X524592D01*
Y702501D01*
Y702561D01*
Y702650D01*
X524607Y702754D01*
X524622Y702873D01*
X524637Y703007D01*
X524681Y703155D01*
X524726Y703304D01*
Y703319D01*
X524741Y703334D01*
X524771Y703423D01*
X524830Y703541D01*
X524919Y703720D01*
X525023Y703913D01*
X525172Y704136D01*
X525320Y704359D01*
X525513Y704596D01*
Y704611D01*
X525543Y704626D01*
X525617Y704715D01*
X525736Y704849D01*
X525915Y705027D01*
X526138Y705235D01*
X526405Y705488D01*
X526732Y705770D01*
X527089Y706082D01*
X527103Y706097D01*
X527163Y706142D01*
X527237Y706201D01*
X527341Y706305D01*
X527475Y706409D01*
X527623Y706543D01*
X527950Y706825D01*
X528307Y707167D01*
X528663Y707509D01*
X528842Y707672D01*
X528990Y707836D01*
X529124Y707999D01*
X529243Y708148D01*
Y708163D01*
X529273Y708177D01*
X529302Y708222D01*
X529332Y708281D01*
X529421Y708430D01*
X529525Y708623D01*
X529629Y708846D01*
X529719Y709084D01*
X529778Y709351D01*
X529808Y709604D01*
Y709619D01*
Y709634D01*
X529793Y709723D01*
X529778Y709857D01*
X529748Y710020D01*
X529674Y710213D01*
X529585Y710406D01*
X529466Y710614D01*
X529288Y710808D01*
X529258Y710822D01*
X529198Y710882D01*
X529080Y710956D01*
X528931Y711060D01*
X528738Y711149D01*
X528515Y711224D01*
X528247Y711283D01*
X527950Y711298D01*
X527861D01*
X527802Y711283D01*
X527653Y711268D01*
X527460Y711238D01*
X527237Y711164D01*
X526999Y711075D01*
X526776Y710941D01*
X526568Y710763D01*
X526554Y710733D01*
X526494Y710674D01*
X526405Y710555D01*
X526316Y710391D01*
X526212Y710183D01*
X526138Y709946D01*
X526078Y709663D01*
X526048Y709336D01*
X524815Y709470D01*
Y709485D01*
Y709530D01*
X524830Y709604D01*
X524845Y709693D01*
X524874Y709812D01*
X524889Y709946D01*
X524978Y710243D01*
X525097Y710585D01*
X525261Y710926D01*
X525484Y711268D01*
X525603Y711417D01*
X525751Y711565D01*
X525766Y711580D01*
X525796Y711595D01*
X525840Y711640D01*
X525900Y711684D01*
X525989Y711729D01*
X526093Y711803D01*
X526212Y711863D01*
X526345Y711937D01*
X526494Y711996D01*
X526658Y712071D01*
X526851Y712130D01*
X527044Y712175D01*
X527490Y712264D01*
X527727Y712279D01*
X527980Y712293D01*
X528114D01*
X528218Y712279D01*
D02*
G37*
G36*
X520075Y712234D02*
X520194D01*
X520491Y712219D01*
X520803Y712189D01*
X521130Y712130D01*
X521442Y712071D01*
X521591Y712026D01*
X521724Y711981D01*
X521739D01*
X521754Y711967D01*
X521843Y711937D01*
X521962Y711863D01*
X522111Y711758D01*
X522289Y711640D01*
X522467Y711476D01*
X522646Y711283D01*
X522809Y711045D01*
X522824Y711016D01*
X522868Y710926D01*
X522943Y710793D01*
X523017Y710614D01*
X523091Y710391D01*
X523166Y710139D01*
X523210Y709872D01*
X523225Y709574D01*
Y709559D01*
Y709530D01*
Y709470D01*
X523210Y709396D01*
Y709307D01*
X523195Y709203D01*
X523136Y708965D01*
X523062Y708683D01*
X522943Y708400D01*
X522765Y708103D01*
X522660Y707955D01*
X522542Y707821D01*
X522512Y707791D01*
X522467Y707762D01*
X522423Y707702D01*
X522349Y707657D01*
X522259Y707583D01*
X522155Y707524D01*
X522036Y707449D01*
X521903Y707375D01*
X521739Y707301D01*
X521576Y707227D01*
X521383Y707152D01*
X521189Y707078D01*
X520967Y707019D01*
X520729Y706974D01*
X520476Y706929D01*
X520506Y706915D01*
X520565Y706885D01*
X520654Y706840D01*
X520759Y706781D01*
X521011Y706617D01*
X521145Y706528D01*
X521249Y706439D01*
X521279Y706409D01*
X521353Y706350D01*
X521457Y706231D01*
X521591Y706082D01*
X521754Y705889D01*
X521932Y705666D01*
X522126Y705414D01*
X522319Y705131D01*
X524013Y702486D01*
X522393D01*
X521100Y704507D01*
Y704522D01*
X521071Y704552D01*
X521041Y704596D01*
X521011Y704656D01*
X520907Y704805D01*
X520773Y704998D01*
X520625Y705221D01*
X520461Y705443D01*
X520313Y705651D01*
X520164Y705845D01*
X520149Y705860D01*
X520105Y705919D01*
X520031Y706008D01*
X519956Y706112D01*
X519733Y706320D01*
X519629Y706424D01*
X519510Y706498D01*
X519496Y706513D01*
X519466Y706528D01*
X519406Y706558D01*
X519332Y706602D01*
X519154Y706692D01*
X518931Y706766D01*
X518916D01*
X518886Y706781D01*
X518827D01*
X518753Y706796D01*
X518649Y706811D01*
X518530D01*
X518381Y706825D01*
X516717D01*
Y702486D01*
X515424D01*
Y712249D01*
X519956D01*
X520075Y712234D01*
D02*
G37*
G36*
X592402Y692327D02*
X591198D01*
Y699964D01*
X591183Y699949D01*
X591124Y699890D01*
X591020Y699816D01*
X590886Y699712D01*
X590723Y699578D01*
X590530Y699444D01*
X590307Y699280D01*
X590054Y699132D01*
X590039D01*
X590024Y699117D01*
X589935Y699058D01*
X589801Y698983D01*
X589638Y698894D01*
X589445Y698790D01*
X589237Y698701D01*
X589014Y698597D01*
X588806Y698508D01*
Y699682D01*
X588821D01*
X588850Y699697D01*
X588910Y699726D01*
X588969Y699771D01*
X589058Y699816D01*
X589162Y699860D01*
X589400Y699994D01*
X589668Y700157D01*
X589965Y700350D01*
X590262Y700573D01*
X590544Y700811D01*
X590559Y700826D01*
X590574Y700841D01*
X590663Y700930D01*
X590797Y701064D01*
X590960Y701227D01*
X591139Y701435D01*
X591317Y701658D01*
X591480Y701896D01*
X591614Y702133D01*
X592402D01*
Y692327D01*
D02*
G37*
G36*
X582535Y702074D02*
X582803Y702059D01*
X583100Y702029D01*
X583382Y701985D01*
X583620Y701940D01*
X583635D01*
X583665Y701925D01*
X583694D01*
X583754Y701896D01*
X583917Y701851D01*
X584110Y701777D01*
X584333Y701688D01*
X584571Y701569D01*
X584809Y701420D01*
X585047Y701242D01*
X585061D01*
X585076Y701212D01*
X585180Y701123D01*
X585314Y700975D01*
X585477Y700781D01*
X585671Y700544D01*
X585864Y700261D01*
X586042Y699934D01*
X586205Y699563D01*
Y699548D01*
X586220Y699518D01*
X586235Y699459D01*
X586265Y699385D01*
X586295Y699295D01*
X586324Y699176D01*
X586369Y699043D01*
X586399Y698894D01*
X586428Y698731D01*
X586473Y698552D01*
X586532Y698166D01*
X586577Y697735D01*
X586592Y697260D01*
Y697245D01*
Y697215D01*
Y697156D01*
Y697067D01*
X586577Y696977D01*
Y696859D01*
X586562Y696591D01*
X586532Y696294D01*
X586473Y695952D01*
X586414Y695610D01*
X586324Y695284D01*
Y695269D01*
X586310Y695239D01*
X586295Y695194D01*
X586280Y695135D01*
X586220Y694986D01*
X586146Y694778D01*
X586057Y694555D01*
X585938Y694318D01*
X585804Y694080D01*
X585656Y693857D01*
X585641Y693827D01*
X585582Y693768D01*
X585507Y693664D01*
X585388Y693530D01*
X585269Y693396D01*
X585106Y693248D01*
X584943Y693099D01*
X584764Y692965D01*
X584749Y692951D01*
X584675Y692921D01*
X584571Y692861D01*
X584437Y692787D01*
X584274Y692713D01*
X584081Y692639D01*
X583858Y692564D01*
X583605Y692490D01*
X583576D01*
X583486Y692460D01*
X583353Y692445D01*
X583159Y692416D01*
X582937Y692386D01*
X582669Y692356D01*
X582372Y692341D01*
X582045Y692327D01*
X578538D01*
Y702089D01*
X582283D01*
X582535Y702074D01*
D02*
G37*
G36*
X538214Y650130D02*
X538408Y650101D01*
X538630Y650056D01*
X538883Y649997D01*
X539136Y649908D01*
X539388Y649789D01*
X539403D01*
X539418Y649774D01*
X539507Y649729D01*
X539626Y649655D01*
X539775Y649551D01*
X539938Y649417D01*
X540116Y649254D01*
X540280Y649061D01*
X540428Y648852D01*
X540443Y648823D01*
X540488Y648748D01*
X540547Y648630D01*
X540607Y648481D01*
X540666Y648288D01*
X540726Y648080D01*
X540770Y647857D01*
X540785Y647604D01*
Y647575D01*
Y647500D01*
X540770Y647381D01*
X540740Y647233D01*
X540696Y647055D01*
X540636Y646861D01*
X540562Y646653D01*
X540443Y646460D01*
X540428Y646431D01*
X540384Y646371D01*
X540295Y646282D01*
X540191Y646163D01*
X540042Y646029D01*
X539879Y645895D01*
X539670Y645747D01*
X539433Y645628D01*
X539448D01*
X539477Y645613D01*
X539522D01*
X539581Y645583D01*
X539730Y645539D01*
X539923Y645450D01*
X540131Y645346D01*
X540354Y645197D01*
X540577Y645019D01*
X540770Y644796D01*
X540785Y644766D01*
X540844Y644677D01*
X540919Y644543D01*
X541023Y644365D01*
X541112Y644142D01*
X541186Y643875D01*
X541246Y643563D01*
X541260Y643221D01*
Y643206D01*
Y643161D01*
Y643102D01*
X541246Y643013D01*
X541231Y642894D01*
X541216Y642775D01*
X541186Y642627D01*
X541142Y642478D01*
X541037Y642136D01*
X540963Y641943D01*
X540859Y641765D01*
X540755Y641586D01*
X540636Y641408D01*
X540488Y641230D01*
X540324Y641051D01*
X540309Y641037D01*
X540280Y641007D01*
X540235Y640977D01*
X540161Y640918D01*
X540072Y640844D01*
X539953Y640769D01*
X539819Y640695D01*
X539685Y640621D01*
X539522Y640531D01*
X539344Y640457D01*
X539150Y640383D01*
X538942Y640309D01*
X538719Y640249D01*
X538482Y640219D01*
X538229Y640190D01*
X537977Y640175D01*
X537858D01*
X537769Y640190D01*
X537650Y640204D01*
X537531Y640219D01*
X537382Y640234D01*
X537234Y640264D01*
X536892Y640353D01*
X536535Y640502D01*
X536357Y640576D01*
X536194Y640680D01*
X536015Y640799D01*
X535852Y640933D01*
X535837Y640947D01*
X535822Y640962D01*
X535777Y641007D01*
X535718Y641066D01*
X535659Y641155D01*
X535584Y641245D01*
X535495Y641349D01*
X535421Y641468D01*
X535243Y641765D01*
X535094Y642106D01*
X534960Y642493D01*
X534916Y642701D01*
X534886Y642924D01*
X536090Y643087D01*
Y643072D01*
X536104Y643043D01*
Y642983D01*
X536134Y642924D01*
X536179Y642745D01*
X536253Y642523D01*
X536342Y642285D01*
X536461Y642032D01*
X536609Y641809D01*
X536773Y641616D01*
X536803Y641601D01*
X536862Y641542D01*
X536966Y641482D01*
X537115Y641393D01*
X537278Y641319D01*
X537486Y641245D01*
X537724Y641185D01*
X537977Y641170D01*
X538066D01*
X538125Y641185D01*
X538274Y641200D01*
X538467Y641245D01*
X538705Y641319D01*
X538942Y641408D01*
X539180Y641557D01*
X539403Y641750D01*
X539433Y641780D01*
X539492Y641854D01*
X539581Y641973D01*
X539700Y642151D01*
X539804Y642359D01*
X539893Y642612D01*
X539953Y642894D01*
X539982Y643206D01*
Y643221D01*
Y643236D01*
Y643280D01*
X539968Y643340D01*
X539953Y643488D01*
X539908Y643681D01*
X539849Y643890D01*
X539745Y644127D01*
X539611Y644350D01*
X539433Y644558D01*
X539403Y644588D01*
X539344Y644647D01*
X539225Y644722D01*
X539061Y644826D01*
X538868Y644930D01*
X538630Y645004D01*
X538378Y645063D01*
X538081Y645093D01*
X537947D01*
X537843Y645078D01*
X537724Y645063D01*
X537575Y645049D01*
X537412Y645019D01*
X537234Y644974D01*
X537367Y646029D01*
X537442D01*
X537501Y646014D01*
X537694D01*
X537828Y646029D01*
X538021Y646059D01*
X538229Y646104D01*
X538452Y646178D01*
X538690Y646267D01*
X538927Y646401D01*
X538957Y646416D01*
X539032Y646475D01*
X539121Y646579D01*
X539240Y646713D01*
X539358Y646876D01*
X539448Y647084D01*
X539522Y647337D01*
X539552Y647634D01*
Y647649D01*
Y647664D01*
Y647738D01*
X539522Y647857D01*
X539492Y648020D01*
X539448Y648184D01*
X539358Y648362D01*
X539254Y648555D01*
X539106Y648719D01*
X539091Y648734D01*
X539032Y648793D01*
X538927Y648867D01*
X538794Y648942D01*
X538630Y649031D01*
X538437Y649090D01*
X538214Y649150D01*
X537962Y649165D01*
X537843D01*
X537709Y649135D01*
X537561Y649105D01*
X537367Y649061D01*
X537174Y648971D01*
X536981Y648867D01*
X536788Y648719D01*
X536773Y648704D01*
X536714Y648644D01*
X536639Y648540D01*
X536550Y648392D01*
X536446Y648214D01*
X536357Y647991D01*
X536268Y647723D01*
X536208Y647411D01*
X535005Y647619D01*
Y647634D01*
X535020Y647679D01*
X535034Y647738D01*
X535049Y647812D01*
X535079Y647916D01*
X535109Y648035D01*
X535213Y648303D01*
X535332Y648600D01*
X535510Y648912D01*
X535718Y649209D01*
X535985Y649477D01*
X536000Y649491D01*
X536015Y649506D01*
X536060Y649536D01*
X536134Y649581D01*
X536208Y649625D01*
X536297Y649685D01*
X536520Y649818D01*
X536803Y649937D01*
X537145Y650041D01*
X537516Y650116D01*
X537724Y650145D01*
X538066D01*
X538214Y650130D01*
D02*
G37*
G36*
X530191Y650086D02*
X530309D01*
X530606Y650071D01*
X530919Y650041D01*
X531245Y649982D01*
X531558Y649922D01*
X531706Y649878D01*
X531840Y649833D01*
X531855D01*
X531870Y649818D01*
X531959Y649789D01*
X532077Y649714D01*
X532226Y649610D01*
X532404Y649491D01*
X532583Y649328D01*
X532761Y649135D01*
X532924Y648897D01*
X532939Y648867D01*
X532984Y648778D01*
X533058Y648644D01*
X533133Y648466D01*
X533207Y648243D01*
X533281Y647991D01*
X533326Y647723D01*
X533341Y647426D01*
Y647411D01*
Y647381D01*
Y647322D01*
X533326Y647248D01*
Y647159D01*
X533311Y647055D01*
X533251Y646817D01*
X533177Y646535D01*
X533058Y646252D01*
X532880Y645955D01*
X532776Y645806D01*
X532657Y645673D01*
X532627Y645643D01*
X532583Y645613D01*
X532538Y645554D01*
X532464Y645509D01*
X532375Y645435D01*
X532271Y645376D01*
X532152Y645301D01*
X532018Y645227D01*
X531855Y645153D01*
X531691Y645078D01*
X531498Y645004D01*
X531305Y644930D01*
X531082Y644870D01*
X530844Y644826D01*
X530592Y644781D01*
X530621Y644766D01*
X530681Y644736D01*
X530770Y644692D01*
X530874Y644632D01*
X531127Y644469D01*
X531260Y644380D01*
X531364Y644291D01*
X531394Y644261D01*
X531468Y644202D01*
X531572Y644083D01*
X531706Y643934D01*
X531870Y643741D01*
X532048Y643518D01*
X532241Y643266D01*
X532434Y642983D01*
X534128Y640338D01*
X532509D01*
X531216Y642359D01*
Y642374D01*
X531186Y642404D01*
X531156Y642448D01*
X531127Y642508D01*
X531023Y642656D01*
X530889Y642849D01*
X530740Y643072D01*
X530577Y643295D01*
X530428Y643503D01*
X530280Y643696D01*
X530265Y643711D01*
X530220Y643771D01*
X530146Y643860D01*
X530072Y643964D01*
X529849Y644172D01*
X529745Y644276D01*
X529626Y644350D01*
X529611Y644365D01*
X529581Y644380D01*
X529522Y644410D01*
X529448Y644454D01*
X529269Y644543D01*
X529046Y644618D01*
X529031D01*
X529002Y644632D01*
X528942D01*
X528868Y644647D01*
X528764Y644662D01*
X528645D01*
X528497Y644677D01*
X526832D01*
Y640338D01*
X525540D01*
Y650101D01*
X530072D01*
X530191Y650086D01*
D02*
G37*
G36*
X597073Y651331D02*
X598396D01*
Y650232D01*
X597073D01*
Y647899D01*
X595869D01*
Y650232D01*
X591635D01*
Y651331D01*
X596092Y657646D01*
X597073D01*
Y651331D01*
D02*
G37*
G36*
X587355Y657646D02*
X587474D01*
X587771Y657632D01*
X588083Y657602D01*
X588410Y657542D01*
X588722Y657483D01*
X588871Y657438D01*
X589005Y657394D01*
X589020D01*
X589034Y657379D01*
X589123Y657349D01*
X589242Y657275D01*
X589391Y657171D01*
X589569Y657052D01*
X589748Y656889D01*
X589926Y656695D01*
X590089Y656458D01*
X590104Y656428D01*
X590149Y656339D01*
X590223Y656205D01*
X590297Y656027D01*
X590372Y655804D01*
X590446Y655551D01*
X590491Y655284D01*
X590505Y654987D01*
Y654972D01*
Y654942D01*
Y654883D01*
X590491Y654808D01*
Y654719D01*
X590476Y654615D01*
X590416Y654377D01*
X590342Y654095D01*
X590223Y653813D01*
X590045Y653515D01*
X589941Y653367D01*
X589822Y653233D01*
X589792Y653204D01*
X589748Y653174D01*
X589703Y653114D01*
X589629Y653070D01*
X589540Y652996D01*
X589436Y652936D01*
X589317Y652862D01*
X589183Y652787D01*
X589020Y652713D01*
X588856Y652639D01*
X588663Y652565D01*
X588470Y652490D01*
X588247Y652431D01*
X588009Y652386D01*
X587757Y652342D01*
X587786Y652327D01*
X587846Y652297D01*
X587935Y652253D01*
X588039Y652193D01*
X588291Y652030D01*
X588425Y651941D01*
X588529Y651851D01*
X588559Y651822D01*
X588633Y651762D01*
X588737Y651643D01*
X588871Y651495D01*
X589034Y651301D01*
X589213Y651079D01*
X589406Y650826D01*
X589599Y650544D01*
X591293Y647899D01*
X589673D01*
X588381Y649920D01*
Y649934D01*
X588351Y649964D01*
X588321Y650009D01*
X588291Y650068D01*
X588187Y650217D01*
X588054Y650410D01*
X587905Y650633D01*
X587742Y650856D01*
X587593Y651064D01*
X587444Y651257D01*
X587430Y651272D01*
X587385Y651331D01*
X587311Y651420D01*
X587236Y651524D01*
X587014Y651732D01*
X586909Y651836D01*
X586791Y651911D01*
X586776Y651926D01*
X586746Y651941D01*
X586687Y651970D01*
X586612Y652015D01*
X586434Y652104D01*
X586211Y652178D01*
X586196D01*
X586167Y652193D01*
X586107D01*
X586033Y652208D01*
X585929Y652223D01*
X585810D01*
X585661Y652238D01*
X583997D01*
Y647899D01*
X582704D01*
Y657661D01*
X587236D01*
X587355Y657646D01*
D02*
G37*
G36*
X548545Y591629D02*
X548664Y591614D01*
X548798Y591599D01*
X548946Y591584D01*
X549110Y591539D01*
X549467Y591450D01*
X549838Y591317D01*
X550031Y591227D01*
X550209Y591123D01*
X550373Y590990D01*
X550536Y590856D01*
X550551Y590841D01*
X550566Y590826D01*
X550611Y590782D01*
X550670Y590722D01*
X550729Y590633D01*
X550804Y590544D01*
X550952Y590321D01*
X551101Y590039D01*
X551235Y589712D01*
X551339Y589340D01*
X551354Y589132D01*
X551368Y588924D01*
Y588895D01*
Y588820D01*
X551354Y588701D01*
X551339Y588553D01*
X551309Y588374D01*
X551264Y588181D01*
X551205Y587973D01*
X551116Y587765D01*
X551101Y587736D01*
X551071Y587661D01*
X551012Y587557D01*
X550923Y587409D01*
X550819Y587230D01*
X550685Y587022D01*
X550507Y586814D01*
X550313Y586577D01*
X550284Y586547D01*
X550209Y586458D01*
X550076Y586324D01*
X549986Y586235D01*
X549883Y586131D01*
X549764Y586012D01*
X549615Y585878D01*
X549467Y585744D01*
X549303Y585581D01*
X549125Y585418D01*
X548917Y585239D01*
X548709Y585061D01*
X548471Y584853D01*
X548456Y584838D01*
X548426Y584808D01*
X548367Y584764D01*
X548293Y584704D01*
X548114Y584556D01*
X547891Y584363D01*
X547668Y584155D01*
X547431Y583946D01*
X547238Y583768D01*
X547163Y583694D01*
X547089Y583620D01*
X547074Y583605D01*
X547044Y583560D01*
X546985Y583501D01*
X546911Y583412D01*
X546747Y583218D01*
X546584Y582981D01*
X551383D01*
Y581837D01*
X544920D01*
Y581851D01*
Y581911D01*
Y582000D01*
X544935Y582104D01*
X544949Y582223D01*
X544964Y582357D01*
X545009Y582505D01*
X545053Y582654D01*
Y582669D01*
X545068Y582683D01*
X545098Y582773D01*
X545157Y582892D01*
X545247Y583070D01*
X545350Y583263D01*
X545499Y583486D01*
X545648Y583709D01*
X545841Y583946D01*
Y583961D01*
X545871Y583976D01*
X545945Y584065D01*
X546064Y584199D01*
X546242Y584377D01*
X546465Y584585D01*
X546732Y584838D01*
X547059Y585120D01*
X547416Y585432D01*
X547431Y585447D01*
X547490Y585492D01*
X547565Y585551D01*
X547668Y585655D01*
X547802Y585759D01*
X547951Y585893D01*
X548278Y586175D01*
X548634Y586517D01*
X548991Y586859D01*
X549169Y587022D01*
X549318Y587186D01*
X549452Y587349D01*
X549571Y587498D01*
Y587513D01*
X549600Y587528D01*
X549630Y587572D01*
X549660Y587631D01*
X549749Y587780D01*
X549853Y587973D01*
X549957Y588196D01*
X550046Y588434D01*
X550105Y588701D01*
X550135Y588954D01*
Y588969D01*
Y588984D01*
X550120Y589073D01*
X550105Y589207D01*
X550076Y589370D01*
X550001Y589563D01*
X549912Y589756D01*
X549793Y589964D01*
X549615Y590158D01*
X549585Y590172D01*
X549526Y590232D01*
X549407Y590306D01*
X549258Y590410D01*
X549065Y590499D01*
X548842Y590574D01*
X548575Y590633D01*
X548278Y590648D01*
X548189D01*
X548129Y590633D01*
X547981Y590618D01*
X547787Y590588D01*
X547565Y590514D01*
X547327Y590425D01*
X547104Y590291D01*
X546896Y590113D01*
X546881Y590083D01*
X546822Y590024D01*
X546732Y589905D01*
X546643Y589742D01*
X546539Y589534D01*
X546465Y589296D01*
X546405Y589013D01*
X546376Y588686D01*
X545143Y588820D01*
Y588835D01*
Y588880D01*
X545157Y588954D01*
X545172Y589043D01*
X545202Y589162D01*
X545217Y589296D01*
X545306Y589593D01*
X545425Y589935D01*
X545588Y590276D01*
X545811Y590618D01*
X545930Y590767D01*
X546079Y590915D01*
X546093Y590930D01*
X546123Y590945D01*
X546168Y590990D01*
X546227Y591034D01*
X546316Y591079D01*
X546420Y591153D01*
X546539Y591213D01*
X546673Y591287D01*
X546822Y591346D01*
X546985Y591421D01*
X547178Y591480D01*
X547371Y591525D01*
X547817Y591614D01*
X548055Y591629D01*
X548307Y591643D01*
X548441D01*
X548545Y591629D01*
D02*
G37*
G36*
X539734Y591584D02*
X540001Y591569D01*
X540299Y591539D01*
X540581Y591495D01*
X540818Y591450D01*
X540833D01*
X540863Y591435D01*
X540893D01*
X540952Y591406D01*
X541116Y591361D01*
X541309Y591287D01*
X541532Y591198D01*
X541769Y591079D01*
X542007Y590930D01*
X542245Y590752D01*
X542260D01*
X542275Y590722D01*
X542379Y590633D01*
X542513Y590485D01*
X542676Y590291D01*
X542869Y590054D01*
X543062Y589771D01*
X543241Y589444D01*
X543404Y589073D01*
Y589058D01*
X543419Y589028D01*
X543434Y588969D01*
X543463Y588895D01*
X543493Y588805D01*
X543523Y588686D01*
X543567Y588553D01*
X543597Y588404D01*
X543627Y588241D01*
X543671Y588063D01*
X543731Y587676D01*
X543775Y587245D01*
X543790Y586770D01*
Y586755D01*
Y586725D01*
Y586666D01*
Y586577D01*
X543775Y586487D01*
Y586368D01*
X543761Y586101D01*
X543731Y585804D01*
X543671Y585462D01*
X543612Y585120D01*
X543523Y584794D01*
Y584779D01*
X543508Y584749D01*
X543493Y584704D01*
X543478Y584645D01*
X543419Y584496D01*
X543345Y584288D01*
X543255Y584065D01*
X543136Y583828D01*
X543003Y583590D01*
X542854Y583367D01*
X542839Y583337D01*
X542780Y583278D01*
X542706Y583174D01*
X542587Y583040D01*
X542468Y582906D01*
X542304Y582758D01*
X542141Y582609D01*
X541963Y582476D01*
X541948Y582461D01*
X541874Y582431D01*
X541769Y582371D01*
X541636Y582297D01*
X541472Y582223D01*
X541279Y582149D01*
X541056Y582074D01*
X540804Y582000D01*
X540774D01*
X540685Y581970D01*
X540551Y581955D01*
X540358Y581926D01*
X540135Y581896D01*
X539868Y581866D01*
X539570Y581851D01*
X539244Y581837D01*
X535737D01*
Y591599D01*
X539481D01*
X539734Y591584D01*
D02*
G37*
G36*
X597987Y623430D02*
X594094D01*
X593559Y620800D01*
X593574Y620815D01*
X593604Y620830D01*
X593648Y620860D01*
X593708Y620904D01*
X593797Y620949D01*
X593886Y620993D01*
X594124Y621112D01*
X594391Y621231D01*
X594703Y621320D01*
X595045Y621395D01*
X595401Y621424D01*
X595520D01*
X595610Y621409D01*
X595728Y621395D01*
X595847Y621380D01*
X595996Y621350D01*
X596144Y621320D01*
X596486Y621201D01*
X596665Y621142D01*
X596843Y621053D01*
X597036Y620949D01*
X597214Y620830D01*
X597393Y620696D01*
X597556Y620533D01*
X597571Y620518D01*
X597601Y620488D01*
X597645Y620443D01*
X597690Y620369D01*
X597764Y620280D01*
X597838Y620176D01*
X597913Y620057D01*
X598002Y619923D01*
X598091Y619760D01*
X598165Y619597D01*
X598240Y619403D01*
X598314Y619210D01*
X598358Y618987D01*
X598403Y618764D01*
X598433Y618512D01*
X598448Y618259D01*
Y618244D01*
Y618200D01*
Y618125D01*
X598433Y618036D01*
X598418Y617918D01*
X598403Y617784D01*
X598388Y617635D01*
X598358Y617472D01*
X598254Y617115D01*
X598121Y616744D01*
X598032Y616536D01*
X597928Y616342D01*
X597809Y616149D01*
X597675Y615971D01*
X597660Y615956D01*
X597630Y615926D01*
X597571Y615867D01*
X597497Y615793D01*
X597407Y615704D01*
X597289Y615600D01*
X597155Y615495D01*
X596991Y615392D01*
X596828Y615273D01*
X596635Y615169D01*
X596412Y615065D01*
X596189Y614975D01*
X595936Y614901D01*
X595684Y614842D01*
X595401Y614812D01*
X595104Y614797D01*
X594971D01*
X594881Y614812D01*
X594777Y614827D01*
X594644Y614842D01*
X594495Y614856D01*
X594332Y614886D01*
X593990Y614975D01*
X593633Y615109D01*
X593455Y615198D01*
X593277Y615302D01*
X593098Y615406D01*
X592935Y615540D01*
X592920Y615555D01*
X592905Y615570D01*
X592861Y615614D01*
X592801Y615674D01*
X592742Y615748D01*
X592667Y615837D01*
X592593Y615941D01*
X592504Y616060D01*
X592341Y616342D01*
X592177Y616684D01*
X592058Y617071D01*
X592014Y617293D01*
X591984Y617516D01*
X593247Y617605D01*
Y617591D01*
Y617561D01*
X593262Y617516D01*
X593277Y617457D01*
X593321Y617293D01*
X593381Y617085D01*
X593455Y616862D01*
X593574Y616640D01*
X593708Y616417D01*
X593886Y616224D01*
X593916Y616209D01*
X593975Y616149D01*
X594079Y616090D01*
X594228Y616001D01*
X594406Y615926D01*
X594614Y615852D01*
X594852Y615793D01*
X595104Y615778D01*
X595193D01*
X595253Y615793D01*
X595416Y615807D01*
X595624Y615852D01*
X595847Y615941D01*
X596100Y616045D01*
X596338Y616209D01*
X596456Y616298D01*
X596575Y616417D01*
Y616432D01*
X596605Y616446D01*
X596665Y616536D01*
X596768Y616684D01*
X596872Y616877D01*
X596977Y617130D01*
X597080Y617427D01*
X597140Y617769D01*
X597170Y618155D01*
Y618170D01*
Y618200D01*
Y618259D01*
X597155Y618319D01*
Y618408D01*
X597140Y618512D01*
X597095Y618750D01*
X597036Y619002D01*
X596932Y619270D01*
X596783Y619537D01*
X596590Y619775D01*
X596561Y619805D01*
X596486Y619864D01*
X596367Y619968D01*
X596189Y620072D01*
X595981Y620176D01*
X595714Y620280D01*
X595416Y620340D01*
X595089Y620369D01*
X594985D01*
X594881Y620354D01*
X594733Y620340D01*
X594569Y620295D01*
X594391Y620250D01*
X594213Y620176D01*
X594034Y620087D01*
X594020Y620072D01*
X593960Y620042D01*
X593871Y619983D01*
X593767Y619909D01*
X593663Y619805D01*
X593544Y619686D01*
X593425Y619552D01*
X593321Y619403D01*
X592192Y619567D01*
X593143Y624574D01*
X597987D01*
Y623430D01*
D02*
G37*
G36*
X587303Y624708D02*
X587422D01*
X587719Y624693D01*
X588031Y624664D01*
X588358Y624604D01*
X588670Y624545D01*
X588819Y624500D01*
X588953Y624455D01*
X588968D01*
X588982Y624441D01*
X589072Y624411D01*
X589190Y624337D01*
X589339Y624233D01*
X589517Y624114D01*
X589696Y623950D01*
X589874Y623757D01*
X590037Y623519D01*
X590052Y623490D01*
X590097Y623400D01*
X590171Y623267D01*
X590245Y623088D01*
X590320Y622865D01*
X590394Y622613D01*
X590439Y622346D01*
X590453Y622048D01*
Y622033D01*
Y622004D01*
Y621944D01*
X590439Y621870D01*
Y621781D01*
X590424Y621677D01*
X590364Y621439D01*
X590290Y621157D01*
X590171Y620874D01*
X589993Y620577D01*
X589889Y620429D01*
X589770Y620295D01*
X589740Y620265D01*
X589696Y620235D01*
X589651Y620176D01*
X589577Y620131D01*
X589488Y620057D01*
X589384Y619998D01*
X589265Y619923D01*
X589131Y619849D01*
X588968Y619775D01*
X588804Y619701D01*
X588611Y619626D01*
X588418Y619552D01*
X588195Y619492D01*
X587957Y619448D01*
X587705Y619403D01*
X587734Y619389D01*
X587794Y619359D01*
X587883Y619314D01*
X587987Y619255D01*
X588239Y619091D01*
X588373Y619002D01*
X588477Y618913D01*
X588507Y618883D01*
X588581Y618824D01*
X588685Y618705D01*
X588819Y618556D01*
X588982Y618363D01*
X589161Y618140D01*
X589354Y617888D01*
X589547Y617605D01*
X591241Y614961D01*
X589621D01*
X588329Y616981D01*
Y616996D01*
X588299Y617026D01*
X588269Y617071D01*
X588239Y617130D01*
X588135Y617279D01*
X588002Y617472D01*
X587853Y617695D01*
X587690Y617918D01*
X587541Y618125D01*
X587393Y618319D01*
X587378Y618334D01*
X587333Y618393D01*
X587259Y618482D01*
X587184Y618586D01*
X586962Y618794D01*
X586858Y618898D01*
X586739Y618973D01*
X586724Y618987D01*
X586694Y619002D01*
X586635Y619032D01*
X586560Y619076D01*
X586382Y619166D01*
X586159Y619240D01*
X586144D01*
X586115Y619255D01*
X586055D01*
X585981Y619270D01*
X585877Y619285D01*
X585758D01*
X585609Y619299D01*
X583945D01*
Y614961D01*
X582653D01*
Y624723D01*
X587184D01*
X587303Y624708D01*
D02*
G37*
%LPC*%
G36*
X703608Y662209D02*
X703593D01*
X703563D01*
X703504D01*
X703415D01*
X703326D01*
X703222Y662195D01*
X702969Y662180D01*
X702687Y662165D01*
X702404Y662120D01*
X702122Y662076D01*
X701884Y662001D01*
X701855Y661987D01*
X701780Y661972D01*
X701676Y661927D01*
X701543Y661868D01*
X701379Y661779D01*
X701230Y661689D01*
X701067Y661585D01*
X700933Y661452D01*
X700919Y661437D01*
X700874Y661392D01*
X700814Y661303D01*
X700740Y661199D01*
X700666Y661080D01*
X700592Y660917D01*
X700532Y660739D01*
X700473Y660545D01*
Y660530D01*
X700458Y660456D01*
X700443Y660352D01*
X700413Y660189D01*
Y660085D01*
X700398Y659966D01*
Y659847D01*
X700384Y659698D01*
Y659535D01*
X700369Y659357D01*
Y658064D01*
X706832D01*
Y659802D01*
X706817Y659981D01*
Y660159D01*
X706788Y660367D01*
X706773Y660545D01*
X706743Y660694D01*
Y660709D01*
X706713Y660783D01*
X706684Y660872D01*
X706654Y660976D01*
X706520Y661244D01*
X706446Y661377D01*
X706342Y661496D01*
X706327Y661511D01*
X706283Y661556D01*
X706223Y661600D01*
X706119Y661675D01*
X705985Y661764D01*
X705822Y661838D01*
X705629Y661927D01*
X705406Y662001D01*
X705391D01*
X705376Y662016D01*
X705332D01*
X705287Y662031D01*
X705138Y662061D01*
X704930Y662105D01*
X704678Y662150D01*
X704366Y662180D01*
X704009Y662195D01*
X703608Y662209D01*
D02*
G37*
G36*
X704618Y651437D02*
X700993Y650070D01*
X704618Y648747D01*
Y651437D01*
D02*
G37*
G36*
X703578Y642670D02*
X703563D01*
X703504D01*
X703415D01*
X703296Y642655D01*
X703162D01*
X702999Y642625D01*
X702820Y642610D01*
X702627Y642581D01*
X702226Y642492D01*
X701810Y642358D01*
X701602Y642269D01*
X701409Y642180D01*
X701230Y642061D01*
X701067Y641927D01*
X701052Y641912D01*
X701037Y641897D01*
X700993Y641853D01*
X700933Y641793D01*
X700874Y641719D01*
X700800Y641630D01*
X700725Y641526D01*
X700651Y641407D01*
X700502Y641139D01*
X700369Y640798D01*
X700265Y640411D01*
X700250Y640203D01*
X700235Y639980D01*
Y639862D01*
X700250Y639772D01*
X700265Y639668D01*
X700279Y639549D01*
X700339Y639282D01*
X700443Y638970D01*
X700502Y638807D01*
X700592Y638643D01*
X700696Y638480D01*
X700800Y638316D01*
X700933Y638168D01*
X701082Y638019D01*
X701097Y638004D01*
X701126Y637989D01*
X701171Y637960D01*
X701230Y637900D01*
X701320Y637856D01*
X701439Y637796D01*
X701557Y637722D01*
X701706Y637662D01*
X701869Y637588D01*
X702063Y637529D01*
X702271Y637454D01*
X702494Y637410D01*
X702746Y637365D01*
X703014Y637321D01*
X703296Y637306D01*
X703608Y637291D01*
X703623D01*
X703682D01*
X703771D01*
X703875Y637306D01*
X704024Y637321D01*
X704173Y637336D01*
X704351Y637350D01*
X704544Y637380D01*
X704960Y637469D01*
X705376Y637618D01*
X705584Y637692D01*
X705777Y637796D01*
X705971Y637915D01*
X706134Y638049D01*
X706149Y638064D01*
X706164Y638078D01*
X706208Y638123D01*
X706268Y638182D01*
X706327Y638257D01*
X706401Y638346D01*
X706550Y638569D01*
X706713Y638851D01*
X706847Y639178D01*
X706907Y639371D01*
X706951Y639564D01*
X706966Y639772D01*
X706981Y639980D01*
Y640099D01*
X706966Y640174D01*
X706951Y640278D01*
X706936Y640396D01*
X706877Y640664D01*
X706773Y640961D01*
X706699Y641125D01*
X706624Y641288D01*
X706520Y641451D01*
X706416Y641615D01*
X706283Y641764D01*
X706134Y641912D01*
X706119Y641927D01*
X706089Y641942D01*
X706045Y641986D01*
X705971Y642031D01*
X705881Y642090D01*
X705777Y642150D01*
X705644Y642224D01*
X705495Y642298D01*
X705332Y642358D01*
X705138Y642432D01*
X704930Y642492D01*
X704693Y642551D01*
X704455Y642596D01*
X704173Y642640D01*
X703890Y642655D01*
X703578Y642670D01*
D02*
G37*
G36*
X423817Y626603D02*
X422346D01*
Y623824D01*
X423698D01*
X423802Y623839D01*
X424040D01*
X424308Y623854D01*
X424560Y623884D01*
X424783Y623928D01*
X424887Y623943D01*
X424961Y623973D01*
X424976Y623988D01*
X425021Y624003D01*
X425095Y624032D01*
X425184Y624092D01*
X425288Y624151D01*
X425392Y624240D01*
X425496Y624330D01*
X425586Y624449D01*
X425600Y624463D01*
X425615Y624508D01*
X425660Y624582D01*
X425704Y624671D01*
X425734Y624775D01*
X425779Y624909D01*
X425793Y625058D01*
X425808Y625206D01*
Y625236D01*
Y625295D01*
X425793Y625399D01*
X425764Y625518D01*
X425734Y625652D01*
X425675Y625801D01*
X425600Y625949D01*
X425496Y626083D01*
X425481Y626098D01*
X425437Y626142D01*
X425378Y626202D01*
X425274Y626276D01*
X425169Y626350D01*
X425021Y626425D01*
X424872Y626484D01*
X424694Y626529D01*
X424679D01*
X424620Y626544D01*
X424530Y626558D01*
X424397Y626573D01*
X424204D01*
X423951Y626588D01*
X423817Y626603D01*
D02*
G37*
G36*
X444412Y676311D02*
X443119D01*
Y669848D01*
X444858D01*
X445036Y669863D01*
X445214D01*
X445422Y669892D01*
X445601Y669907D01*
X445749Y669937D01*
X445764D01*
X445838Y669967D01*
X445928Y669996D01*
X446031Y670026D01*
X446299Y670160D01*
X446433Y670234D01*
X446552Y670338D01*
X446566Y670353D01*
X446611Y670397D01*
X446656Y670457D01*
X446730Y670561D01*
X446819Y670695D01*
X446893Y670858D01*
X446982Y671051D01*
X447057Y671274D01*
Y671289D01*
X447072Y671304D01*
Y671348D01*
X447086Y671393D01*
X447116Y671542D01*
X447161Y671750D01*
X447205Y672002D01*
X447235Y672314D01*
X447250Y672671D01*
X447265Y673072D01*
Y673087D01*
Y673117D01*
Y673176D01*
Y673265D01*
Y673354D01*
X447250Y673458D01*
X447235Y673711D01*
X447220Y673993D01*
X447176Y674276D01*
X447131Y674558D01*
X447057Y674796D01*
X447042Y674825D01*
X447027Y674900D01*
X446982Y675004D01*
X446923Y675137D01*
X446834Y675301D01*
X446745Y675450D01*
X446641Y675613D01*
X446507Y675747D01*
X446492Y675761D01*
X446447Y675806D01*
X446358Y675866D01*
X446254Y675940D01*
X446135Y676014D01*
X445972Y676088D01*
X445794Y676148D01*
X445601Y676207D01*
X445586D01*
X445511Y676222D01*
X445407Y676237D01*
X445244Y676267D01*
X445140D01*
X445021Y676282D01*
X444902D01*
X444754Y676296D01*
X444590D01*
X444412Y676311D01*
D02*
G37*
G36*
X543544Y711164D02*
X540468D01*
Y707940D01*
X543381D01*
X543544Y707955D01*
X543737Y707970D01*
X543960Y707984D01*
X544198Y708014D01*
X544421Y708059D01*
X544614Y708118D01*
X544644Y708133D01*
X544703Y708148D01*
X544792Y708192D01*
X544896Y708252D01*
X545015Y708341D01*
X545149Y708445D01*
X545268Y708564D01*
X545372Y708698D01*
X545387Y708712D01*
X545416Y708772D01*
X545461Y708846D01*
X545506Y708965D01*
X545550Y709084D01*
X545595Y709232D01*
X545625Y709396D01*
X545639Y709574D01*
Y709589D01*
Y709604D01*
Y709693D01*
X545610Y709812D01*
X545580Y709976D01*
X545521Y710154D01*
X545431Y710347D01*
X545298Y710540D01*
X545134Y710718D01*
X545104Y710733D01*
X545045Y710793D01*
X544911Y710867D01*
X544748Y710941D01*
X544525Y711031D01*
X544258Y711090D01*
X543931Y711149D01*
X543544Y711164D01*
D02*
G37*
G36*
X519793D02*
X516717D01*
Y707940D01*
X519629D01*
X519793Y707955D01*
X519986Y707970D01*
X520209Y707984D01*
X520447Y708014D01*
X520669Y708059D01*
X520863Y708118D01*
X520892Y708133D01*
X520952Y708148D01*
X521041Y708192D01*
X521145Y708252D01*
X521264Y708341D01*
X521398Y708445D01*
X521516Y708564D01*
X521620Y708698D01*
X521635Y708712D01*
X521665Y708772D01*
X521710Y708846D01*
X521754Y708965D01*
X521799Y709084D01*
X521843Y709232D01*
X521873Y709396D01*
X521888Y709574D01*
Y709589D01*
Y709604D01*
Y709693D01*
X521858Y709812D01*
X521828Y709976D01*
X521769Y710154D01*
X521680Y710347D01*
X521546Y710540D01*
X521383Y710718D01*
X521353Y710733D01*
X521293Y710793D01*
X521160Y710867D01*
X520996Y710941D01*
X520773Y711031D01*
X520506Y711090D01*
X520179Y711149D01*
X519793Y711164D01*
D02*
G37*
G36*
X581867Y700945D02*
X579831D01*
Y693471D01*
X582060D01*
X582223Y693485D01*
X582446Y693500D01*
X582684Y693515D01*
X582937Y693545D01*
X583174Y693589D01*
X583397Y693649D01*
X583427Y693664D01*
X583486Y693679D01*
X583590Y693723D01*
X583709Y693783D01*
X583858Y693857D01*
X584006Y693931D01*
X584140Y694035D01*
X584274Y694154D01*
X584289Y694169D01*
X584348Y694243D01*
X584437Y694347D01*
X584541Y694481D01*
X584645Y694659D01*
X584764Y694867D01*
X584883Y695120D01*
X584987Y695387D01*
Y695402D01*
X585002Y695417D01*
X585017Y695462D01*
X585032Y695521D01*
X585047Y695595D01*
X585076Y695685D01*
X585121Y695908D01*
X585165Y696190D01*
X585210Y696517D01*
X585240Y696873D01*
X585255Y697275D01*
Y697289D01*
Y697349D01*
Y697423D01*
Y697527D01*
X585240Y697661D01*
X585225Y697810D01*
X585210Y697973D01*
X585195Y698136D01*
X585136Y698523D01*
X585047Y698909D01*
X584913Y699280D01*
X584838Y699459D01*
X584749Y699622D01*
Y699637D01*
X584720Y699652D01*
X584705Y699697D01*
X584660Y699756D01*
X584556Y699905D01*
X584408Y700068D01*
X584229Y700261D01*
X584021Y700440D01*
X583783Y700603D01*
X583531Y700737D01*
X583501Y700752D01*
X583427Y700766D01*
X583308Y700796D01*
X583130Y700841D01*
X582892Y700885D01*
X582610Y700915D01*
X582268Y700930D01*
X581867Y700945D01*
D02*
G37*
G36*
X529908Y649016D02*
X526832D01*
Y645791D01*
X529745D01*
X529908Y645806D01*
X530101Y645821D01*
X530324Y645836D01*
X530562Y645866D01*
X530785Y645910D01*
X530978Y645970D01*
X531008Y645985D01*
X531067Y646000D01*
X531156Y646044D01*
X531260Y646104D01*
X531379Y646193D01*
X531513Y646297D01*
X531632Y646416D01*
X531736Y646549D01*
X531751Y646564D01*
X531780Y646624D01*
X531825Y646698D01*
X531870Y646817D01*
X531914Y646936D01*
X531959Y647084D01*
X531988Y647248D01*
X532003Y647426D01*
Y647441D01*
Y647456D01*
Y647545D01*
X531973Y647664D01*
X531944Y647827D01*
X531884Y648006D01*
X531795Y648199D01*
X531661Y648392D01*
X531498Y648570D01*
X531468Y648585D01*
X531409Y648644D01*
X531275Y648719D01*
X531112Y648793D01*
X530889Y648882D01*
X530621Y648942D01*
X530294Y649001D01*
X529908Y649016D01*
D02*
G37*
G36*
X595869Y655700D02*
X592809Y651331D01*
X595869D01*
Y655700D01*
D02*
G37*
G36*
X587073Y656577D02*
X583997D01*
Y653352D01*
X586909D01*
X587073Y653367D01*
X587266Y653382D01*
X587489Y653397D01*
X587727Y653426D01*
X587950Y653471D01*
X588143Y653530D01*
X588173Y653545D01*
X588232Y653560D01*
X588321Y653605D01*
X588425Y653664D01*
X588544Y653753D01*
X588678Y653857D01*
X588797Y653976D01*
X588901Y654110D01*
X588915Y654125D01*
X588945Y654184D01*
X588990Y654258D01*
X589034Y654377D01*
X589079Y654496D01*
X589123Y654645D01*
X589153Y654808D01*
X589168Y654987D01*
Y655001D01*
Y655016D01*
Y655105D01*
X589138Y655224D01*
X589109Y655388D01*
X589049Y655566D01*
X588960Y655759D01*
X588826Y655952D01*
X588663Y656131D01*
X588633Y656146D01*
X588574Y656205D01*
X588440Y656279D01*
X588277Y656354D01*
X588054Y656443D01*
X587786Y656502D01*
X587459Y656562D01*
X587073Y656577D01*
D02*
G37*
G36*
X539065Y590455D02*
X537029D01*
Y582981D01*
X539258D01*
X539422Y582995D01*
X539645Y583010D01*
X539882Y583025D01*
X540135Y583055D01*
X540373Y583100D01*
X540596Y583159D01*
X540625Y583174D01*
X540685Y583189D01*
X540789Y583233D01*
X540908Y583293D01*
X541056Y583367D01*
X541205Y583441D01*
X541339Y583545D01*
X541472Y583664D01*
X541487Y583679D01*
X541547Y583753D01*
X541636Y583857D01*
X541740Y583991D01*
X541844Y584169D01*
X541963Y584377D01*
X542081Y584630D01*
X542186Y584897D01*
Y584912D01*
X542200Y584927D01*
X542215Y584972D01*
X542230Y585031D01*
X542245Y585106D01*
X542275Y585195D01*
X542319Y585418D01*
X542364Y585700D01*
X542408Y586027D01*
X542438Y586383D01*
X542453Y586785D01*
Y586799D01*
Y586859D01*
Y586933D01*
Y587037D01*
X542438Y587171D01*
X542423Y587319D01*
X542408Y587483D01*
X542394Y587646D01*
X542334Y588033D01*
X542245Y588419D01*
X542111Y588791D01*
X542037Y588969D01*
X541948Y589132D01*
Y589147D01*
X541918Y589162D01*
X541903Y589207D01*
X541859Y589266D01*
X541755Y589415D01*
X541606Y589578D01*
X541428Y589771D01*
X541220Y589949D01*
X540982Y590113D01*
X540729Y590247D01*
X540700Y590262D01*
X540625Y590276D01*
X540507Y590306D01*
X540328Y590351D01*
X540090Y590395D01*
X539808Y590425D01*
X539466Y590440D01*
X539065Y590455D01*
D02*
G37*
G36*
X587021Y623638D02*
X583945D01*
Y620414D01*
X586858D01*
X587021Y620429D01*
X587214Y620443D01*
X587437Y620458D01*
X587675Y620488D01*
X587898Y620533D01*
X588091Y620592D01*
X588121Y620607D01*
X588180Y620622D01*
X588269Y620666D01*
X588373Y620726D01*
X588492Y620815D01*
X588626Y620919D01*
X588745Y621038D01*
X588849Y621172D01*
X588863Y621186D01*
X588893Y621246D01*
X588938Y621320D01*
X588982Y621439D01*
X589027Y621558D01*
X589072Y621707D01*
X589101Y621870D01*
X589116Y622048D01*
Y622063D01*
Y622078D01*
Y622167D01*
X589086Y622286D01*
X589057Y622449D01*
X588997Y622628D01*
X588908Y622821D01*
X588774Y623014D01*
X588611Y623192D01*
X588581Y623207D01*
X588522Y623267D01*
X588388Y623341D01*
X588225Y623415D01*
X588002Y623504D01*
X587734Y623564D01*
X587407Y623623D01*
X587021Y623638D01*
D02*
G37*
%LPD*%
D10*
X568940Y701450D02*
G03*
X568940Y701450I-1250J0D01*
G01*
X514370Y604998D02*
G03*
X514370Y604998I-1250J0D01*
G01*
D11*
X632590Y586540D02*
G03*
X634590Y586540I1000J0D01*
G01*
D02*
G03*
X632590Y586540I-1000J0D01*
G01*
X503190Y614970D02*
Y693070D01*
X454390Y614970D02*
Y682970D01*
X539350Y678470D02*
Y682970D01*
X552850Y678470D02*
Y682970D01*
X529990Y679740D02*
Y684240D01*
X516490Y679740D02*
Y684240D01*
X560190Y679450D02*
X575190D01*
X531150Y623170D02*
X535650D01*
X531150Y636670D02*
X535650D01*
X588300Y630790D02*
X592800D01*
X588300Y644290D02*
X592800D01*
X535120Y596998D02*
X552620D01*
X535120Y612998D02*
X552620D01*
X588300Y597770D02*
X592800D01*
X588300Y611270D02*
X592800D01*
D12*
X623890Y631260D02*
Y692260D01*
Y631260D02*
X689290D01*
Y692260D01*
M02*
