G04*
G04 #@! TF.GenerationSoftware,Altium Limited,Altium Designer,25.8.1 (18)*
G04*
G04 Layer_Physical_Order=1*
G04 Layer_Color=255*
%FSLAX44Y44*%
%MOMM*%
G71*
G04*
G04 #@! TF.SameCoordinates,36C31401-F8FC-4B98-A594-FA9AA5983C7E*
G04*
G04*
G04 #@! TF.FilePolarity,Positive*
G04*
G01*
G75*
%ADD13R,1.2000X0.9000*%
%ADD14R,1.2000X1.2000*%
%ADD15R,0.9000X1.2000*%
%ADD16R,1.0000X2.8500*%
%ADD17R,4.5000X6.1000*%
%ADD18R,1.2500X2.0000*%
%ADD24C,0.3810*%
%ADD25C,1.2000*%
%ADD26C,0.3810*%
%ADD27C,2.0320*%
G36*
X739140Y579120D02*
X645160D01*
Y621030D01*
X739140D01*
Y579120D01*
D02*
G37*
G36*
Y669290D02*
X716280D01*
X704850Y680720D01*
Y708660D01*
X739140D01*
Y669290D01*
D02*
G37*
G36*
X701040Y679450D02*
X715010Y665480D01*
X739140D01*
Y624840D01*
X610870D01*
Y674863D01*
X646578D01*
X653385Y668055D01*
X654856Y667073D01*
X656590Y666728D01*
X658324Y667073D01*
X659795Y668055D01*
X660777Y669526D01*
X661122Y671260D01*
X660777Y672994D01*
X659795Y674465D01*
X651660Y682600D01*
X650189Y683582D01*
X648455Y683927D01*
X610870D01*
Y708660D01*
X701040D01*
Y679450D01*
D02*
G37*
%LPC*%
G36*
X679490Y609292D02*
X677756Y608947D01*
X676285Y607965D01*
X675303Y606494D01*
X674958Y604760D01*
Y595510D01*
X675303Y593776D01*
X676285Y592305D01*
X677756Y591323D01*
X679490Y590978D01*
X681224Y591323D01*
X682695Y592305D01*
X683677Y593776D01*
X684022Y595510D01*
Y604760D01*
X683677Y606494D01*
X682695Y607965D01*
X681224Y608947D01*
X679490Y609292D01*
D02*
G37*
%LPD*%
D13*
X546100Y670220D02*
D03*
Y691220D02*
D03*
X523240Y692490D02*
D03*
Y671490D02*
D03*
D14*
X567690Y668950D02*
D03*
Y689950D02*
D03*
X491490Y687070D02*
D03*
D15*
X543900Y629920D02*
D03*
X522900D02*
D03*
X601050Y637540D02*
D03*
X580050D02*
D03*
X601050Y604520D02*
D03*
X580050D02*
D03*
D16*
X633690Y604760D02*
D03*
X679490D02*
D03*
D17*
X656590Y671260D02*
D03*
D18*
X562620Y604998D02*
D03*
X525120D02*
D03*
D24*
X510540Y629920D02*
X522900D01*
X491490Y610870D02*
X510540Y629920D01*
X521143Y600793D02*
Y601021D01*
X520775Y600425D02*
X521143Y600793D01*
X476535Y600425D02*
X520775D01*
X466090Y610870D02*
X476535Y600425D01*
X521740Y692490D02*
X523240D01*
X516320Y687070D02*
X521740Y692490D01*
X491490Y687070D02*
X516320D01*
X465005Y688155D02*
X466090Y687070D01*
X454375Y688155D02*
X465005D01*
X450380Y692150D02*
X454375Y688155D01*
X434340Y692150D02*
X450380D01*
X619520Y604760D02*
X633690D01*
X601050Y623230D02*
X619520Y604760D01*
X601050Y623230D02*
Y637540D01*
X647700Y581660D02*
X648970Y582930D01*
X623910Y581660D02*
X647700D01*
X679490Y595510D02*
Y604760D01*
X555795Y657055D02*
X567690Y668950D01*
X605145Y600425D02*
X623910Y581660D01*
X603645Y600425D02*
X605145D01*
X601050Y603020D02*
X603645Y600425D01*
X601050Y603020D02*
Y604520D01*
X562620Y604998D02*
X563098Y604520D01*
X580050D01*
Y637540D01*
X543900Y645160D02*
X555795Y657055D01*
X543900Y629920D02*
Y645160D01*
X648455Y679395D02*
X656590Y671260D01*
X556775Y679395D02*
X648455D01*
X547600Y670220D02*
X556775Y679395D01*
X546100Y670220D02*
X547600D01*
X566420Y691220D02*
X567690Y689950D01*
X546100Y691220D02*
X566420D01*
X434340Y603250D02*
X502580Y671490D01*
X523240D01*
D25*
X466090Y687070D02*
D03*
Y610870D02*
D03*
X491490D02*
D03*
D26*
X648970Y582930D02*
D03*
X555795Y657055D02*
D03*
D27*
X722630Y601980D02*
D03*
Y688340D02*
D03*
Y647700D02*
D03*
X434340Y603250D02*
D03*
Y692150D02*
D03*
M02*
