G04*
G04 #@! TF.GenerationSoftware,Altium Limited,Altium Designer,25.8.1 (18)*
G04*
G04 Layer_Color=8388736*
%FSLAX44Y44*%
%MOMM*%
G71*
G04*
G04 #@! TF.SameCoordinates,36C31401-F8FC-4B98-A594-FA9AA5983C7E*
G04*
G04*
G04 #@! TF.FilePolarity,Negative*
G04*
G01*
G75*
%ADD13R,1.2000X0.9000*%
%ADD14R,1.2000X1.2000*%
%ADD15R,0.9000X1.2000*%
%ADD18R,1.2500X2.0000*%
%ADD19R,1.2032X3.0532*%
%ADD20R,4.7032X6.3032*%
%ADD21R,1.4032X1.4032*%
%ADD22C,1.4032*%
%ADD23C,2.2352*%
D13*
X546100Y670220D02*
D03*
Y691220D02*
D03*
X523240Y692490D02*
D03*
Y671490D02*
D03*
D14*
X567690Y668950D02*
D03*
Y689950D02*
D03*
D15*
X543900Y629920D02*
D03*
X522900D02*
D03*
X601050Y637540D02*
D03*
X580050D02*
D03*
X601050Y604520D02*
D03*
X580050D02*
D03*
D18*
X562620Y604998D02*
D03*
X525120D02*
D03*
D19*
X633690Y604760D02*
D03*
X679490D02*
D03*
D20*
X656590Y671260D02*
D03*
D21*
X491490Y687070D02*
D03*
D22*
X466090D02*
D03*
Y610870D02*
D03*
X491490D02*
D03*
D23*
X722630Y601980D02*
D03*
Y688340D02*
D03*
Y647700D02*
D03*
X434340Y603250D02*
D03*
Y692150D02*
D03*
M02*
